<svg width="652" height="513" viewBox="0 0 652 513" fill="none" xmlns="http://www.w3.org/2000/svg">
<path d="M651.636 165.764V454.492C651.636 470.492 645.939 484.189 634.545 495.583C623.151 506.977 609.455 512.674 593.455 512.674H58.1818C42.1818 512.674 28.4848 506.977 17.0909 495.583C5.69697 484.189 0 470.492 0 454.492V165.764C10.6667 177.643 22.9091 188.189 36.7273 197.401C124.485 257.037 184.727 298.855 217.455 322.855C231.273 333.037 242.485 340.977 251.091 346.674C259.697 352.37 271.152 358.189 285.455 364.128C299.758 370.067 313.091 373.037 325.455 373.037H325.818H326.182C338.545 373.037 351.879 370.067 366.182 364.128C380.485 358.189 391.939 352.37 400.545 346.674C409.151 340.977 420.364 333.037 434.182 322.855C475.394 293.037 535.758 251.219 615.273 197.401C629.091 187.946 641.212 177.401 651.636 165.764ZM651.636 58.8553C651.636 78.0068 645.697 96.3099 633.818 113.764C621.939 131.219 607.151 146.128 589.455 158.492C498.303 221.764 441.576 261.158 419.273 276.674C416.848 278.37 411.697 282.067 403.818 287.764C395.939 293.461 389.394 298.067 384.182 301.583C378.97 305.098 372.667 309.037 365.273 313.401C357.879 317.764 350.909 321.037 344.364 323.219C337.818 325.401 331.758 326.492 326.182 326.492H325.818H325.455C319.879 326.492 313.818 325.401 307.273 323.219C300.727 321.037 293.758 317.764 286.364 313.401C278.97 309.037 272.667 305.098 267.455 301.583C262.242 298.067 255.697 293.461 247.818 287.764C239.939 282.067 234.788 278.37 232.364 276.674C210.303 261.158 178.545 239.037 137.091 210.31C95.6364 181.583 70.7879 164.31 62.5455 158.492C47.5151 148.31 33.3333 134.31 20 116.492C6.66667 98.6735 0 82.1281 0 66.8553C0 47.9462 5.0303 32.1887 15.0909 19.5826C25.1515 6.97654 39.5151 0.673508 58.1818 0.673508H593.455C609.212 0.673508 622.848 6.37048 634.364 17.7644C645.879 29.1584 651.636 42.8553 651.636 58.8553Z" fill="#4285F4"/>
</svg>
