<svg width="512" height="500" viewBox="0 0 512 500" fill="none" xmlns="http://www.w3.org/2000/svg">
<path d="M256 0C114.645 0 0 114.624 0 256C0 369.109 73.344 465.067 175.083 498.923C187.861 501.291 192 493.355 192 486.613V438.955C120.789 454.443 105.963 408.747 105.963 408.747C94.3147 379.157 77.5253 371.285 77.5253 371.285C54.2933 355.392 79.296 355.733 79.296 355.733C105.003 357.525 118.528 382.123 118.528 382.123C141.355 421.248 178.411 409.941 193.024 403.392C195.307 386.859 201.941 375.552 209.28 369.173C152.427 362.667 92.6507 340.715 92.6507 242.645C92.6507 214.677 102.656 191.851 119.019 173.931C116.373 167.467 107.605 141.419 121.515 106.176C121.515 106.176 143.019 99.3067 191.936 132.416C212.352 126.741 234.24 123.904 256 123.797C277.76 123.904 299.669 126.741 320.128 132.416C369.003 99.3067 390.464 106.176 390.464 106.176C404.395 141.44 395.627 167.488 392.981 173.931C409.408 191.851 419.328 214.699 419.328 242.645C419.328 340.971 359.445 362.624 302.443 368.96C311.616 376.896 320 392.469 320 416.363V486.613C320 493.419 324.096 501.419 337.088 498.901C438.741 465.003 512 369.067 512 256C512 114.624 397.376 0 256 0Z" fill="#4285F4"/>
</svg>
