<svg width="640" height="385" viewBox="0 0 640 385" fill="none" xmlns="http://www.w3.org/2000/svg">
<path d="M622.335 89.2025L343.395 3.5025C328.195 -1.1675 311.795 -1.1675 296.605 3.5025L17.655 89.2025C-5.885 96.4325 -5.885 127.562 17.655 134.792L66.285 149.732C55.615 162.922 49.055 179.013 48.405 196.633C38.775 202.153 31.995 212.113 31.995 224.003C31.995 234.783 37.675 243.852 45.855 249.652L20.325 364.533C18.105 374.523 25.705 384.003 35.935 384.003H92.045C102.285 384.003 109.885 374.523 107.665 364.533L82.135 249.652C90.315 243.852 95.995 234.783 95.995 224.003C95.995 212.433 89.525 202.753 80.335 197.133C81.095 182.113 88.775 168.833 101.025 160.413L296.595 220.503C305.655 223.283 323.035 226.753 343.385 220.503L622.335 134.803C645.885 127.563 645.885 96.4425 622.335 89.2025V89.2025ZM352.785 251.092C324.255 259.852 299.945 255.012 287.195 251.092L142.175 206.543L127.995 320.003C127.995 355.353 213.955 384.003 319.995 384.003C426.035 384.003 511.995 355.353 511.995 320.003L497.815 206.533L352.785 251.092V251.092Z" fill="#4285F4"/>
</svg>
