<svg width="90" height="119" viewBox="0 0 90 119" fill="none" xmlns="http://www.w3.org/2000/svg">
<path d="M44.5 0C19.9 0 0 19.9 0 44.5C0 57.3 6.4 68.9 12.7 79.6C20.4 92.901 29.6 105.3 40.3 116.3C42.6 118.699 46.401 118.699 48.8 116.3C58.2 107 66.5 96.5 73.5 85.3C81 73.199 89.1 59.199 89.1 44.5C89 20 69.1 0 44.5 0ZM44.5 70.3C29.6 70.3 17.5 58.2 17.5 43.3C17.5 28.4 29.6 16.3 44.5 16.3C59.4 16.3 71.5 28.3 71.5 43.3C71.5 58.3 59.4 70.3 44.5 70.3Z" fill="#4285F4"/>
<path d="M23.7 29.3V27.5H36.75V29.3H33.6V57.2H36.75V59H23.7V57.2H26.85V29.3H23.7ZM42.607 29.3V27.5H52.507C59.887 27.5 64.507 29.27 66.367 32.81C67.117 34.19 67.492 35.87 67.492 37.85C67.492 39.83 67.117 41.51 66.367 42.89C65.647 44.27 64.582 45.335 63.172 46.085C60.532 47.495 56.977 48.2 52.507 48.2H52.057V57.2H55.657V59H42.607V57.2H45.307V29.3H42.607ZM52.507 29.3H52.057V46.4H52.507C54.877 46.4 56.842 45.65 58.402 44.15C59.962 42.65 60.742 40.55 60.742 37.85C60.742 35.15 59.962 33.05 58.402 31.55C56.842 30.05 54.877 29.3 52.507 29.3Z" fill="#4285F4"/>
</svg>
