<svg width="84" height="44" viewBox="0 0 84 44" fill="none" xmlns="http://www.w3.org/2000/svg">
<path fill-rule="evenodd" clip-rule="evenodd" d="M8.20822 19.272C9.38422 12.804 15.1802 8.36 21.4802 8.36H33.7862C35.9702 8.36 37.7762 6.468 37.7762 4.18C37.7762 1.892 35.9702 3.8147e-06 33.7862 3.8147e-06H21.9002C10.9382 3.8147e-06 1.15222 8.40401 0.10222 19.844C-1.11578 32.956 8.71222 44 20.9762 44H33.7862C35.9702 44 37.7762 42.108 37.7762 39.82C37.7762 37.532 35.9702 35.64 33.7862 35.64H20.9762C12.9542 35.64 6.61222 27.984 8.20822 19.272ZM29.3762 26.4H54.5762C56.8862 26.4 58.7762 24.42 58.7762 22C58.7762 19.58 56.8862 17.6 54.5762 17.6H29.3762C27.0662 17.6 25.1762 19.58 25.1762 22C25.1762 24.42 27.0662 26.4 29.3762 26.4ZM62.0522 3.8147e-06H50.1662C47.9822 3.8147e-06 46.1762 1.892 46.1762 4.18C46.1762 6.468 47.9822 8.36 50.1662 8.36H62.4722C68.7722 8.36 74.5682 12.804 75.7442 19.272C77.3402 27.984 70.9982 35.64 62.9762 35.64H50.1662C47.9822 35.64 46.1762 37.532 46.1762 39.82C46.1762 42.108 47.9822 44 50.1662 44H62.9762C75.2402 44 85.0682 32.956 83.8922 19.844C82.8422 8.40401 73.0142 3.8147e-06 62.0522 3.8147e-06Z" fill="#4285F4"/>
</svg>
