<svg width="100" height="100" viewBox="0 0 100 100" fill="none" xmlns="http://www.w3.org/2000/svg">
<path d="M100 56.519C100 59.9708 97.2018 62.769 93.75 62.769H6.25C2.79822 62.769 0 59.9708 0 56.519V56.519C0 53.0672 2.79822 50.269 6.25 50.269H93.75C97.2018 50.269 100 53.0672 100 56.519V56.519Z" fill="#4285F4"/>
<path d="M100 6.25C100 9.70178 97.2018 12.5 93.75 12.5H6.25C2.79822 12.5 0 9.70178 0 6.25V6.25C0 2.79822 2.79822 0 6.25 0H93.75C97.2018 0 100 2.79822 100 6.25V6.25Z" fill="#4285F4"/>
<path d="M37.5 93.75C37.5 97.205 34.692 100 31.25 100C27.783 100 24.988 97.205 24.988 93.75C24.988 90.295 27.783 87.5 31.25 87.5C34.692 87.5 37.5 90.295 37.5 93.75Z" fill="#4285F4"/>
<path d="M62.5 31.25C62.5 34.7018 59.7018 37.5 56.25 37.5H6.25C2.79822 37.5 0 34.7018 0 31.25V31.25C0 27.7982 2.79822 25 6.25 25H56.25C59.7018 25 62.5 27.7982 62.5 31.25V31.25Z" fill="#4285F4"/>
<path d="M12.5 93.75C12.5 97.205 9.705 100 6.25 100C2.795 100 0 97.205 0 93.75C0 90.295 2.795 87.5 6.25 87.5C9.705 87.5 12.5 90.295 12.5 93.75Z" fill="#4285F4"/>
<path d="M62.5 93.75C62.5 97.205 59.705 100 56.25 100C52.795 100 50 97.205 50 93.75C50 90.295 52.795 87.5 56.25 87.5C59.705 87.5 62.5 90.295 62.5 93.75Z" fill="#4285F4"/>
</svg>
