<svg width="90" height="51" viewBox="0 0 90 51" fill="none" xmlns="http://www.w3.org/2000/svg">
<path d="M85 0H44.51C41.7486 0 39.51 2.23858 39.51 5V6.56C39.51 9.32142 41.7486 11.56 44.51 11.56H85C87.7614 11.56 90 9.32142 90 6.56V5C90 2.23858 87.7614 0 85 0Z" fill="#4285F4"/>
<path d="M85 19.28H60.26C57.4986 19.28 55.26 21.5186 55.26 24.28V25.84C55.26 28.6014 57.4986 30.84 60.26 30.84H85C87.7614 30.84 90 28.6014 90 25.84V24.28C90 21.5186 87.7614 19.28 85 19.28Z" fill="#4285F4"/>
<path d="M85 38.56H44.51C41.7486 38.56 39.51 40.7986 39.51 43.56V45.12C39.51 47.8814 41.7486 50.12 44.51 50.12H85C87.7614 50.12 90 47.8814 90 45.12V43.56C90 40.7986 87.7614 38.56 85 38.56Z" fill="#4285F4"/>
<path d="M34.9 16.06L29.08 12.7C28.6238 12.4366 28.1063 12.298 27.5795 12.2981C27.0527 12.2982 26.5353 12.4369 26.0792 12.7005C25.6231 12.964 25.2444 13.343 24.9812 13.7993C24.718 14.2556 24.5797 14.7732 24.58 15.3V19.06C24.58 19.8556 24.2639 20.6187 23.7013 21.1813C23.1387 21.7439 22.3756 22.06 21.58 22.06H3C2.20435 22.06 1.44129 22.3761 0.87868 22.9387C0.316071 23.5013 0 24.2643 0 25.06V25.06C0 25.8556 0.316071 26.6187 0.87868 27.1813C1.44129 27.7439 2.20435 28.06 3 28.06H21.58C22.3756 28.06 23.1387 28.3761 23.7013 28.9387C24.2639 29.5013 24.58 30.2643 24.58 31.06V34.82C24.5797 35.3468 24.718 35.8643 24.9812 36.3207C25.2444 36.777 25.6231 37.156 26.0792 37.4195C26.5353 37.6831 27.0527 37.8218 27.5795 37.8219C28.1063 37.822 28.6238 37.6834 29.08 37.42L34.9 34.06L44.82 28.33C45.393 27.9978 45.8686 27.5208 46.1992 26.9469C46.5298 26.373 46.7038 25.7223 46.7038 25.06C46.7038 24.3977 46.5298 23.747 46.1992 23.1731C45.8686 22.5992 45.393 22.1222 44.82 21.79L34.9 16.06Z" fill="#4285F4"/>
</svg>
