<svg width="458" height="512" viewBox="0 0 458 512" fill="none" xmlns="http://www.w3.org/2000/svg">
<path d="M170.648 0L0 149.915H110.044C118.018 221.682 175.432 251.984 234.441 256.769C223.277 285.476 228.062 299.829 245.605 318.968C177.027 320.562 81.3367 360.433 81.3367 425.822C87.7161 497.589 181.811 511.943 228.062 511.943C288.666 513.538 357.244 481.641 371.597 425.822C377.977 370.002 355.649 339.7 322.157 312.588C285.476 283.881 277.502 267.933 288.666 248.795C312.588 221.682 344.485 205.734 350.864 167.458C354.054 140.346 347.675 122.802 341.295 98.8799L413.063 38.2761L411.468 63.7935C406.684 66.9832 403.494 73.3625 403.494 78.147V242.415C406.684 263.148 438.58 259.959 440.175 242.415V78.147C440.175 73.3625 436.986 66.9832 432.201 65.3883V25.5174L457.718 0H170.648ZM263.148 224.872C165.863 240.82 124.397 86.1212 202.544 66.9832C291.855 49.44 334.916 204.139 263.148 224.872ZM255.174 341.295C350.864 362.028 352.459 441.77 271.122 465.693C200.95 480.046 140.346 459.313 141.941 417.847C141.941 377.977 197.76 341.295 255.174 341.295Z" fill="#4285F4"/>
</svg>
