<svg width="1280" height="1065" viewBox="0 0 1280 1065" fill="none" xmlns="http://www.w3.org/2000/svg">
<path d="M838.639 0.612716C797.039 5.01272 759.039 31.5127 740.039 69.2127C722.139 104.613 722.039 147.113 739.739 182.313C756.839 216.113 787.139 239.913 824.639 248.913C829.339 250.013 833.939 250.913 834.939 250.913C836.239 250.913 845.039 234.013 870.839 182.413C889.739 144.713 905.539 113.913 906.139 113.913C906.639 113.913 920.639 119.013 937.139 125.213L967.139 136.413L966.839 139.713C966.339 146.413 953.039 195.813 949.639 203.613C947.839 207.913 950.139 205.813 955.239 198.613C965.239 184.713 972.739 166.913 976.339 149.113C978.639 137.413 978.639 114.613 976.339 102.713C966.839 54.5127 930.639 15.8127 884.039 4.01272C869.539 0.412716 852.639 -0.887284 838.639 0.612716Z" fill="#4285F4"/>
<path d="M1038.64 67.4127V81.9127H1126.14H1213.64V67.4127V52.9127H1126.14H1038.64V67.4127Z" fill="#4285F4"/>
<path d="M1030.64 93.7127V101.913L1143.44 101.713L1256.14 101.413V93.6127V85.9127L1143.34 85.6127L1030.64 85.4127V93.7127Z" fill="#4285F4"/>
<path d="M1045.34 105.613C1044.94 105.913 1044.64 112.013 1044.64 119.113V131.913H1136.64H1228.64V118.413V104.913H1137.34C1087.04 104.913 1045.64 105.213 1045.34 105.613Z" fill="#4285F4"/>
<path d="M854.739 230.613L800.839 338.413L798.639 330.913C797.439 326.813 790.139 302.513 782.439 277.013L768.539 230.613L758.139 219.713C746.839 207.913 738.539 196.313 733.239 184.713C729.439 176.513 721.639 154.313 719.639 146.113C719.039 143.313 718.239 140.913 717.939 140.913C717.639 140.913 712.639 144.413 706.739 148.713C690.339 160.913 685.439 164.213 634.139 199.413C467.739 313.313 393.339 370.913 328.139 436.313C281.039 483.613 252.339 524.013 240.739 559.513C235.539 575.413 234.239 584.113 234.939 599.113C235.739 617.713 241.339 632.613 252.939 646.913C259.639 655.113 262.539 657.113 273.939 660.813C320.339 676.113 417.339 686.513 555.439 690.813C571.039 691.313 583.939 691.913 584.139 692.113C584.439 692.313 582.139 702.213 579.039 714.013C576.039 725.713 568.239 756.513 561.639 782.413C549.839 828.713 539.939 867.713 521.139 941.213C500.939 1020.11 496.439 1038.11 496.839 1038.41C497.039 1038.61 519.939 1044.51 547.639 1051.41C575.439 1058.31 598.839 1064.21 599.739 1064.51C600.939 1064.81 601.739 1063.71 602.839 1059.71C603.739 1056.81 608.239 1041.41 612.939 1025.41C627.239 977.013 644.039 915.413 654.139 874.413C680.339 767.513 692.639 695.213 692.639 647.913C692.639 614.613 688.039 600.513 674.139 590.913C645.639 571.313 583.139 558.513 480.639 551.413C468.839 550.613 455.939 549.913 452.039 549.913C448.139 549.913 444.739 549.613 444.339 549.313C444.039 549.013 481.839 513.813 528.439 471.113C575.039 428.513 630.839 377.313 652.539 357.513C674.139 337.613 692.139 321.313 692.539 321.213C692.839 321.013 695.339 325.113 698.039 330.213C721.339 374.013 748.139 401.513 775.239 409.513C783.039 411.813 797.139 411.813 805.539 409.513C838.439 400.613 870.039 367.413 898.739 311.413C920.939 268.213 941.839 211.213 956.539 153.513C958.239 146.913 959.539 141.413 959.339 141.313C958.839 140.813 910.439 122.913 909.539 122.913C909.039 122.913 884.439 171.413 854.739 230.613Z" fill="#4285F4"/>
<path d="M1030.64 142.413V149.913H1134.64H1238.64V142.413V134.913H1134.64H1030.64V142.413Z" fill="#4285F4"/>
<path d="M1036.74 154.113C1036.24 155.413 1035.54 157.813 1035.24 159.513L1034.54 162.713L1039.84 163.313C1042.74 163.713 1058.84 165.313 1075.64 166.913C1092.44 168.613 1124.34 171.713 1146.64 173.913C1168.94 176.113 1200.64 179.213 1217.14 180.913L1247.14 183.813L1257.24 178.213C1270.84 170.613 1271.34 170.213 1270.04 168.113C1268.34 165.513 1257.14 158.113 1252.94 156.913C1250.84 156.313 1245.54 155.413 1241.14 154.913C1229.34 153.513 1146.44 151.913 1088.34 151.913H1037.64L1036.74 154.113Z" fill="#4285F4"/>
<path d="M1031.64 176.913V187.913H1136.14C1228.34 187.913 1240.64 187.713 1240.64 186.413C1240.64 185.613 1240.24 184.913 1239.84 184.913C1232.44 184.913 1177.14 179.813 1099.34 171.913C1066.44 168.613 1037.74 165.913 1035.64 165.913H1031.64V176.913Z" fill="#4285F4"/>
<path d="M1049.64 198.413V205.913H1153.64H1257.64V198.413V190.913H1153.64H1049.64V198.413Z" fill="#4285F4"/>
<path d="M1038.64 220.413V231.913L1133.74 231.713L1228.84 231.413V220.413V209.413L1133.74 209.113L1038.64 208.913V220.413Z" fill="#4285F4"/>
<path d="M1051.64 246.413V256.913H1147.14H1242.64V246.413V235.913H1147.14H1051.64V246.413Z" fill="#4285F4"/>
<path d="M1042.64 263.413V266.913H1127.14H1211.64V263.413V259.913H1127.14H1042.64V263.413Z" fill="#4285F4"/>
<path d="M1117.14 271.013C1058.54 272.113 1041.64 273.113 1034.34 275.913C1028.24 278.213 1018.14 285.613 1018.14 287.713C1018.14 288.413 1023.34 291.913 1029.64 295.513L1041.14 302.013L1113.64 294.913C1153.54 291.013 1199.84 286.513 1216.64 284.913C1233.44 283.313 1248.84 281.613 1250.84 281.213L1254.44 280.413L1252.84 275.413L1251.14 270.413L1205.14 270.313C1179.84 270.313 1140.24 270.613 1117.14 271.013Z" fill="#4285F4"/>
<path d="M1217.64 288.013C1202.54 289.513 1162.24 293.513 1128.14 296.913C1062.64 303.213 1050.64 305.013 1050.64 308.113C1050.64 309.813 1054.84 309.913 1152.64 309.913H1254.64V297.413V284.913L1249.94 285.013C1247.24 285.113 1232.74 286.413 1217.64 288.013Z" fill="#4285F4"/>
<path d="M1027.64 325.913V338.913L1130.44 338.713L1233.14 338.413V325.913V313.413L1130.44 313.113L1027.64 312.913V325.913Z" fill="#4285F4"/>
<path d="M8.73899 363.613C4.23899 381.713 0.338995 397.113 0.0389949 398.113C-0.361005 399.413 2.139 400.313 15.839 403.513C33.839 407.813 36.139 409.013 40.139 416.913C46.139 428.613 45.739 443.813 37.639 521.413C29.839 596.213 28.239 621.313 28.939 657.213C29.539 686.913 30.139 692.613 34.339 710.413C41.139 739.513 56.439 757.713 81.039 765.913C104.239 773.613 125.439 775.913 180.839 776.613L224.439 777.213L225.039 785.313C225.339 789.713 226.039 814.313 226.639 839.913C227.239 865.513 228.139 901.513 228.639 919.913C229.139 938.313 229.639 955.913 229.639 959.013V964.613L183.439 1007.51C158.039 1031.11 135.239 1052.31 132.739 1054.61L128.139 1058.81H177.639L227.139 1058.71L242.539 1042.21L258.039 1025.81L274.539 1042.31L291.139 1058.91H342.139H393.139L342.739 1008.51L292.339 958.013L292.539 940.713C293.139 902.713 296.339 773.813 296.839 773.413C297.039 773.213 329.939 770.313 370.039 767.013C410.039 763.813 443.039 760.813 443.339 760.513C443.939 759.913 438.039 693.013 437.239 690.413C436.839 689.313 434.439 689.513 325.139 698.313C294.939 700.813 257.939 703.313 242.939 704.013C213.639 705.313 147.539 704.713 132.139 703.013C122.139 701.913 104.439 698.713 105.039 698.113C105.239 697.913 105.039 696.313 104.539 694.613C102.139 686.713 100.639 669.313 100.639 649.113C100.639 619.413 102.539 593.513 111.139 510.713C118.839 436.113 118.139 416.713 107.239 391.113C100.739 376.013 92.439 365.513 77.839 353.813C65.639 344.013 59.639 341.313 38.939 335.813C28.539 333.113 19.439 330.913 18.539 330.913C17.239 330.913 15.239 337.413 8.73899 363.613Z" fill="#4285F4"/>
<path d="M1042.64 359.913V377.913H1145.64H1248.64V359.913V341.913H1145.64H1042.64V359.913Z" fill="#4285F4"/>
<path d="M1053.34 399.613L1053.54 417.413L1143.64 417.713L1233.64 417.913V399.913V381.913H1143.44H1053.14L1053.34 399.613Z" fill="#4285F4"/>
<path d="M631.339 423.613C630.939 423.913 630.639 440.113 630.639 459.613V494.913L849.839 495.113L1069.14 495.413L1079.94 530.413C1128.64 688.213 1162.04 833.813 1168.74 918.113C1170.14 935.713 1169.44 971.813 1167.44 980.413L1166.14 986.413L1006.94 986.713L847.639 986.913V1022.91V1058.91H1013.44C1197.14 1058.91 1184.84 1059.31 1199.64 1052.21C1205.44 1049.41 1208.94 1046.81 1215.14 1040.51C1224.34 1031.11 1228.74 1024.11 1232.94 1012.61C1239.44 994.313 1241.74 977.513 1241.74 947.913C1241.74 909.713 1237.34 871.213 1226.04 810.413C1211.64 733.313 1182.94 620.513 1152.74 522.113C1148.24 507.613 1144.64 495.613 1144.64 495.413C1144.64 495.113 1175.04 494.913 1212.14 494.913H1279.64V458.913V422.913H955.839C777.739 422.913 631.639 423.213 631.339 423.613Z" fill="#4285F4"/>
</svg>
