<svg width="512" height="417" viewBox="0 0 512 417" fill="none" xmlns="http://www.w3.org/2000/svg">
<path d="M459.583 103.57C459.895 108.084 459.895 112.598 459.895 117.153C459.895 255.953 354.23 416.033 161.015 416.033V415.95C103.939 416.033 48.0488 399.684 0 368.858C8.29933 369.856 16.6403 370.355 25.002 370.376C72.3019 370.418 118.25 354.547 155.462 325.323C110.512 324.47 71.0955 295.162 57.3257 252.376C73.0715 255.413 89.2958 254.789 104.75 250.566C55.7449 240.665 20.4883 197.609 20.4883 147.605C20.4883 147.147 20.4883 146.71 20.4883 146.273C35.0901 154.406 51.4392 158.92 68.1627 159.419C22.0067 128.572 7.77932 67.1697 35.6518 19.1626C88.9838 84.7876 167.671 124.683 252.142 128.905C243.676 92.4213 255.241 54.1903 282.531 28.5435C324.839 -11.2267 391.379 -9.18828 431.149 33.0988C454.674 28.4603 477.222 19.8282 497.856 7.59758C490.014 31.9132 473.603 52.5679 451.679 65.6929C472.5 63.2385 492.843 57.664 512 49.1566C497.897 70.2898 480.134 88.6981 459.583 103.57Z" fill="#4285F4"/>
</svg>
